# xmcd
#
# Track frame offsets: 
#        150
#        25512
#        39362
#        55880
#        71282
#        88160
#        107582
#        126212
#        143977
#        161637
#        176540
#        195555
#        212202
#        229340
#        243875
#        259872
#        285375
#        297797
#
# Disc length: 4173 seconds
#
# Revision: 1
# Processed by: cddbd v1.5.2PL0 Copyright (c) Steve Scherf et al.
# Submitted via: ExactAudioCopy v0.99pb4
#
DISCID=fd104b12
DTITLE=Various Artist - Free Style Vol.1 R&B Collaborations
DYEAR=2005
DGENRE=R&B
TTITLE0=Nelly feat. Jaheim - My Place
TTITLE1=R. Kelly - Ignition (Reamix)
TTITLE2=Kanye West feat. Syleena Johnson - All Falls Down
TTITLE3=Jay-Z feat. Beyonce Knowls - 03' Bonnie and Clyde
TTITLE4=Fabolous feat. Mike Shorey and Lil'Mo - Can't Let You Go
TTITLE5=Carl Thomas feat. LL Cool J - She Is
TTITLE6=MYA feat. Fat Lip and Tre - Fallen Remix
TTITLE7=AZ feat. Jay-Z and Beanie Sigel - Wanna Be There
TTITLE8=Memphis Bleek feat. Nate Dogg - Need Me In Your Life
TTITLE9=B2K - Girlfriend (Ron G Remix)
TTITLE10=Ginuwine feat. Baby - Hell Yeah
TTITLE11=Cam'Ron feat. Juelz Santana, Freekey Zekey and Kay Slay - Hey M
TTITLE11=a
TTITLE12=Sugababes feat. Romeo - Shape (Double R Remix)
TTITLE13=Method Man feat. Ghostface - Afterparty
TTITLE14=Lumidee feat. Busta Rhymes and Fabolous - Uh Oooh (Never Leave 
TTITLE14=You Remix)
TTITLE15=Christina Milian feat. Romeo - When You Look At Me (Agent X R
TTITLE15=emix)
TTITLE16=The Crooklyn Clan feat. Fatman Scoop - Be Faithfull
TTITLE17=Cam'Ron feat. Juelz Santana - Oh Boy
EXTD=
EXTT0=
EXTT1=
EXTT2=
EXTT3=
EXTT4=
EXTT5=
EXTT6=
EXTT7=
EXTT8=
EXTT9=
EXTT10=
EXTT11=
EXTT12=
EXTT13=
EXTT14=
EXTT15=
EXTT16=
EXTT17=
PLAYORDER=
